# xmcd CD database file
#
# Track frame offsets:
#	150
#	24891
#	44342
#	65917
#	88482
#	152771
#	168010
#
# Disc length: 2429 seconds
#
# Revision: 0
# Processed by: cddbd v1.5.2PL0 Copyright (c) Steve Scherf et al.
# Submitted via: CDex 1.51
#
DISCID=54097b07
DTITLE=D¿em - Absolutely Live
DYEAR=1986
DGENRE=Blues
TTITLE0=Abym Mogl Przed Siebie Isc
TTITLE1=Blues Alabama
TTITLE2=Kiepska Gra
TTITLE3=Wiem Na Pewno Wiem
TTITLE4=Niewinni I Ja Cz. 1 I 2
TTITLE5=Norweska Impresja Bluesowa
TTITLE6=Poznalem Go Po Czarnym Kapeluszu
EXTD=YEAR: 1986
EXTT0=
EXTT1=
EXTT2=
EXTT3=
EXTT4=
EXTT5=
EXTT6=
PLAYORDER=
